<svg width="38" height="42" viewBox="0 0 38 42" fill="none" xmlns="http://www.w3.org/2000/svg">
<path d="M1 1H22.1707L29.499 7.92118V19.3208" stroke="#F18A02" stroke-width="1.5"/>
<path d="M1 1V37.6415H9.95682" stroke="#F18A02" stroke-width="1.5"/>
<path d="M16.4709 34.3847C17.6923 33.9776 19.8093 33.8148 18.5065 36.4204L16.4709 39.2702C15.6566 40.4916 13.621 40.6545 13.621 38.0488" stroke="#F18A02" stroke-width="1.5"/>
<path d="M18.0994 36.8274C18.9137 36.4203 21.5193 36.9086 20.5422 38.8629L19.3208 40.4914C18.5065 41.3056 16.4709 41.3056 16.4709 39.27" stroke="#F18A02" stroke-width="1.5"/>
<path d="M9.95594 37.6416H1.40625V1.40723H22.5769L29.4981 8.3284V19.3209" stroke="#F18A02" stroke-width="1.5"/>
<path d="M22.5781 1.40723L22.9853 8.3284H29.4993" stroke="#F18A02" stroke-width="1.5"/>
<path d="M5.07031 7.92114H15.2485" stroke="#F18A02" stroke-width="1.5"/>
<path d="M5.07031 11.9924H25.0196" stroke="#F18A02" stroke-width="1.5"/>
<path d="M5.07031 16.0637H25.0196" stroke="#F18A02" stroke-width="1.5"/>
<path d="M16.064 23.7991L12.807 20.9492L6.29297 30.7203L9.14287 32.7559L16.064 23.7991Z" stroke="#F18A02" stroke-width="1.5"/>
<path d="M9.95679 31.9417L10.3639 32.7559" stroke="#F18A02" stroke-width="1.5"/>
<path d="M14.8418 25.4275C16.0632 25.0204 19.9716 23.3918 20.9487 25.0204" stroke="#F18A02" stroke-width="1.5"/>
<path d="M28.6852 26.2419L27.0566 23.7991L30.7208 20.9492L36.4206 30.7203L33.5707 32.7559L30.3137 28.6847" stroke="#F18A02" stroke-width="1.5"/>
<path d="M27.4639 25.0206C26.3783 24.8849 24.1255 24.532 23.7998 24.2063C23.4741 23.8806 20.9499 25.1563 19.7285 25.8348V30.7204C20.1356 33.5703 22.9855 31.1275 22.9855 28.2776L30.721 32.756C31.3995 32.8917 32.6752 32.8375 32.3495 31.5346" stroke="#F18A02" stroke-width="1.5"/>
<path d="M31.1275 33.1632C31.6703 34.1132 32.186 36.0131 29.9061 36.0131C29.4327 36.0131 26.1804 33.8418 24.6134 32.7561" stroke="#F18A02" stroke-width="1.5"/>
<path d="M29.0913 36.013C29.227 36.8272 29.0913 38.3743 27.4628 38.0486L22.9844 35.1987" stroke="#F18A02" stroke-width="1.5"/>
<path d="M26.6491 37.6416C26.7848 38.4559 26.6491 40.0029 25.0206 39.6772L21.7635 37.6416" stroke="#F18A02" stroke-width="1.5"/>
<path d="M23.7989 39.27C23.5275 40.22 22.089 41.3057 20.1348 39.6771" stroke="#F18A02" stroke-width="1.5"/>
<path d="M13.2139 33.5703C13.2139 31.616 11.5853 31.9418 10.7711 32.3489L9.14258 34.7916C9.14258 36.4201 10.4997 36.2844 11.1782 36.013L13.2139 33.5703Z" stroke="#F18A02" stroke-width="1.5"/>
<path d="M13.2146 33.57C14.436 31.9415 17.2859 31.9415 16.4792 34.3843L13.6293 38.0485C12.4003 38.8627 10.8511 37.967 11.1768 36.0128" stroke="#F18A02" stroke-width="1.5"/>
</svg>
