<svg width="40" height="40" viewBox="0 0 40 40" fill="none" xmlns="http://www.w3.org/2000/svg">
<path d="M25 3.33325V19.9999C25 21.8333 23.5 23.3333 21.6667 23.3333H3.33334V12.6999C4.55001 14.1499 6.41672 15.0499 8.48339 14.9999C10.1667 14.9666 11.6833 14.3166 12.8167 13.2333C13.3333 12.7999 13.7667 12.2499 14.1 11.6499C14.7 10.6332 15.0333 9.43321 15 8.18321C14.95 6.23321 14.0834 4.51659 12.7334 3.33325H25Z" stroke="#F18A02" stroke-width="1.5" stroke-linecap="round" stroke-linejoin="round"/>
<path d="M36.6667 23.3333V28.3333C36.6667 31.0999 34.4333 33.3333 31.6667 33.3333H30C30 31.4999 28.5 29.9999 26.6667 29.9999C24.8333 29.9999 23.3333 31.4999 23.3333 33.3333H16.6667C16.6667 31.4999 15.1667 29.9999 13.3333 29.9999C11.5 29.9999 10 31.4999 10 33.3333H8.33334C5.56668 33.3333 3.33334 31.0999 3.33334 28.3333V23.3333H21.6667C23.5 23.3333 25 21.8333 25 19.9999V8.33325H28.0667C29.2667 8.33325 30.3667 8.98327 30.9667 10.0166L33.8166 14.9999H31.6667C30.75 14.9999 30 15.7499 30 16.6666V21.6666C30 22.5833 30.75 23.3333 31.6667 23.3333H36.6667Z" stroke="#F18A02" stroke-width="1.5" stroke-linecap="round" stroke-linejoin="round"/>
<path d="M13.3333 36.6667C15.1743 36.6667 16.6667 35.1743 16.6667 33.3333C16.6667 31.4924 15.1743 30 13.3333 30C11.4924 30 10 31.4924 10 33.3333C10 35.1743 11.4924 36.6667 13.3333 36.6667Z" stroke="#F18A02" stroke-width="1.5" stroke-linecap="round" stroke-linejoin="round"/>
<path d="M26.6667 36.6667C28.5076 36.6667 30 35.1743 30 33.3333C30 31.4924 28.5076 30 26.6667 30C24.8257 30 23.3333 31.4924 23.3333 33.3333C23.3333 35.1743 24.8257 36.6667 26.6667 36.6667Z" stroke="#F18A02" stroke-width="1.5" stroke-linecap="round" stroke-linejoin="round"/>
<path d="M36.6667 20V23.3333H31.6667C30.75 23.3333 30 22.5833 30 21.6667V16.6667C30 15.75 30.75 15 31.6667 15H33.8166L36.6667 20Z" stroke="#F18A02" stroke-width="1.5" stroke-linecap="round" stroke-linejoin="round"/>
<path d="M15 8.1834C15.0333 9.4334 14.7 10.6334 14.1 11.6501C13.7667 12.2501 13.3333 12.8001 12.8167 13.2335C11.6833 14.3168 10.1667 14.9668 8.48336 15.0001C6.41669 15.0501 4.54998 14.1501 3.33331 12.7001C3.09998 12.4501 2.89999 12.1668 2.71666 11.8835C2.06666 10.9001 1.69998 9.73349 1.66665 8.48349C1.61665 6.38349 2.54997 4.46677 4.04997 3.21677C5.1833 2.28344 6.6166 1.70011 8.18327 1.66678C9.93327 1.63345 11.5333 2.26678 12.7333 3.33345C14.0833 4.51678 14.95 6.2334 15 8.1834Z" stroke="#F18A02" stroke-width="1.5" stroke-miterlimit="10" stroke-linecap="round" stroke-linejoin="round"/>
<path d="M5.73358 8.38346L7.41693 9.9834L10.9002 6.6167" stroke="#F18A02" stroke-width="1.5" stroke-linecap="round" stroke-linejoin="round"/>
</svg>
