<svg width="48" height="40" viewBox="0 0 48 40" fill="none" xmlns="http://www.w3.org/2000/svg">
<path d="M4.16602 34.667C4.16602 29.6061 8.76256 26.267 14.4327 26.267C20.1028 26.267 24.6993 29.6061 24.6993 34.667M39.6327 30.0003C39.6327 24.9394 35.0361 21.6003 29.366 21.6003C27.2984 21.6003 25.3753 22.0215 23.766 22.8058M19.0993 16.0003C19.0993 18.5777 17.01 20.667 14.4327 20.667C11.8554 20.667 9.76602 18.5777 9.76602 16.0003C9.76602 13.423 11.8554 11.3337 14.4327 11.3337C17.01 11.3337 19.0993 13.423 19.0993 16.0003ZM34.0327 11.3337C34.0327 13.911 31.9433 16.0003 29.366 16.0003C26.7887 16.0003 24.6993 13.911 24.6993 11.3337C24.6993 8.75633 26.7887 6.66699 29.366 6.66699C31.9433 6.66699 34.0327 8.75633 34.0327 11.3337Z" stroke="#F18A02" stroke-width="2" stroke-linecap="round" stroke-linejoin="round"/>
</svg>
