<svg width="63" height="63" viewBox="0 0 63 63" fill="none" xmlns="http://www.w3.org/2000/svg">
<path d="M6.86484 6.32434V25.2433H3.08105L10.1081 33.3514L16.054 25.2433H12.8108V10.6487" stroke="#F18A02" stroke-width="2"/>
<path d="M12.8105 13.3514L36.5943 2L61.4592 13.3514V17.6757H12.8105" stroke="#F18A02" stroke-width="2"/>
<path d="M59.8378 18.2162V62H17.6757M17.6757 62H2V33.8919H17.6757V62Z" stroke="#F18A02" stroke-width="2"/>
<path d="M2 47.9459H33.8919V61.4594" stroke="#F18A02" stroke-width="2"/>
<path d="M23.6221 47.946V23.6216H39.8383V61.4595" stroke="#F18A02" stroke-width="2"/>
<path d="M40.3779 25.7838H56.0536V61.4595" stroke="#F18A02" stroke-width="2"/>
<path d="M40.3779 50.1081H55.5131" stroke="#F18A02" stroke-width="2"/>
<path d="M40.3779 37.6757H55.5131" stroke="#F18A02" stroke-width="2"/>
<path d="M24.1621 36.0541H39.2972" stroke="#F18A02" stroke-width="2"/>
<path d="M30.6484 24.1622V28.4865H34.9728V24.1622" stroke="#F18A02" stroke-width="2"/>
<path d="M45.7842 26.3243V30.6487H50.1085V26.3243" stroke="#F18A02" stroke-width="2"/>
<path d="M45.7842 38.2162V42.5405H50.1085V38.2162" stroke="#F18A02" stroke-width="2"/>
<path d="M45.7842 50.1081V54.4324H50.1085V50.1081" stroke="#F18A02" stroke-width="2"/>
<path d="M30.6484 36.0541V40.3784H34.9728V36.0541" stroke="#F18A02" stroke-width="2"/>
<path d="M24.1621 47.9459V52.2702H28.4864V47.9459" stroke="#F18A02" stroke-width="2"/>
<path d="M7.94629 47.9459V52.2702H12.2706V47.9459" stroke="#F18A02" stroke-width="2"/>
<path d="M7.94629 33.8919V38.2162H12.2706V33.8919" stroke="#F18A02" stroke-width="2"/>
<rect x="12.2705" y="6.86487" width="1.08108" height="1.08108" fill="#F18A02"/>
</svg>
