<svg width="60" height="60" viewBox="0 0 60 60" fill="none" xmlns="http://www.w3.org/2000/svg">
<path d="M60 30C60 46.5685 46.5685 60 30 60C13.4315 60 0 46.5685 0 30C0 13.4315 13.4315 0 30 0C46.5685 0 60 13.4315 60 30Z" fill="#F18A02"/>
<path d="M8.97778 33.9474L8.97778 21.3474L5.88305 21.3474V18.4737H12.5588V33.9474H8.97778Z" fill="#2058AA"/>
<path d="M15.1142 33.9474V31.6263L21.0827 25.9895C21.5542 25.5621 21.9006 25.1789 22.1216 24.84C22.3427 24.5011 22.49 24.1916 22.5637 23.9116C22.6521 23.6316 22.6963 23.3737 22.6963 23.1379C22.6963 22.5189 22.4827 22.0474 22.0553 21.7232C21.6427 21.3842 21.0311 21.2147 20.2206 21.2147C19.5721 21.2147 18.9679 21.34 18.4079 21.5905C17.8627 21.8411 17.3985 22.2316 17.0153 22.7621L14.4069 21.0821C14.9963 20.1979 15.8216 19.4979 16.8827 18.9821C17.9437 18.4663 19.1669 18.2084 20.5521 18.2084C21.7016 18.2084 22.7037 18.4 23.5584 18.7832C24.4279 19.1516 25.0984 19.6747 25.57 20.3526C26.0563 21.0305 26.2995 21.8411 26.2995 22.7842C26.2995 23.2853 26.2332 23.7863 26.1006 24.2874C25.9827 24.7737 25.7321 25.2895 25.349 25.8347C24.9806 26.38 24.4353 26.9916 23.7132 27.6695L20.1462 31.0295L26.8079 31.0295V33.9474H15.1142Z" fill="#2058AA"/>
<path d="M34.9171 34.2126C33.6497 34.2126 32.515 33.9032 31.5129 33.2842C30.5108 32.6505 29.7224 31.7368 29.1476 30.5432C28.5729 29.3495 28.2855 27.9053 28.2855 26.2105C28.2855 24.5158 28.5729 23.0716 29.1476 21.8779C29.7224 20.6842 30.5108 19.7779 31.5129 19.1589C32.515 18.5253 33.6497 18.2084 34.9171 18.2084C36.1992 18.2084 37.3339 18.5253 38.3213 19.1589C39.3234 19.7779 40.1118 20.6842 40.6866 21.8779C41.2613 23.0716 41.5487 24.5158 41.5487 26.2105C41.5487 27.9053 41.2613 29.3495 40.6866 30.5432C40.1118 31.7368 39.3234 32.6505 38.3213 33.2842C37.3339 33.9032 36.1992 34.2126 34.9171 34.2126ZM34.9171 31.1842C35.5213 31.1842 36.0445 31.0147 36.4866 30.6758C36.9434 30.3368 37.2971 29.7989 37.5476 29.0621C37.8129 28.3253 37.9455 27.3747 37.9455 26.2105C37.9455 25.0463 37.8129 24.0958 37.5476 23.3589C37.2971 22.6221 36.9434 22.0842 36.4866 21.7453C36.0445 21.4063 35.5213 21.2368 34.9171 21.2368C34.3276 21.2368 33.8045 21.4063 33.3476 21.7453C32.9055 22.0842 32.5518 22.6221 32.2866 23.3589C32.036 24.0958 31.9108 25.0463 31.9108 26.2105C31.9108 27.3747 32.036 28.3253 32.2866 29.0621C32.5518 29.7989 32.9055 30.3368 33.3476 30.6758C33.8045 31.0147 34.3276 31.1842 34.9171 31.1842Z" fill="#2058AA"/>
<path d="M49.9202 34.2126C48.6528 34.2126 47.5181 33.9032 46.516 33.2842C45.5139 32.6505 44.7254 31.7368 44.1507 30.5432C43.576 29.3495 43.2886 27.9053 43.2886 26.2105C43.2886 24.5158 43.576 23.0716 44.1507 21.8779C44.7254 20.6842 45.5139 19.7779 46.516 19.1589C47.5181 18.5253 48.6528 18.2084 49.9202 18.2084C51.2023 18.2084 52.337 18.5253 53.3244 19.1589C54.3265 19.7779 55.1149 20.6842 55.6897 21.8779C56.2644 23.0716 56.5518 24.5158 56.5518 26.2105C56.5518 27.9053 56.2644 29.3495 55.6897 30.5432C55.1149 31.7368 54.3265 32.6505 53.3244 33.2842C52.337 33.9032 51.2023 34.2126 49.9202 34.2126ZM49.9202 31.1842C50.5244 31.1842 51.0476 31.0147 51.4897 30.6758C51.9465 30.3368 52.3002 29.7989 52.5507 29.0621C52.816 28.3253 52.9486 27.3747 52.9486 26.2105C52.9486 25.0463 52.816 24.0958 52.5507 23.3589C52.3002 22.6221 51.9465 22.0842 51.4897 21.7453C51.0476 21.4063 50.5244 21.2368 49.9202 21.2368C49.3307 21.2368 48.8076 21.4063 48.3507 21.7453C47.9086 22.0842 47.5549 22.6221 47.2897 23.3589C47.0391 24.0958 46.9139 25.0463 46.9139 26.2105C46.9139 27.3747 47.0391 28.3253 47.2897 29.0621C47.5549 29.7989 47.9086 30.3368 48.3507 30.6758C48.8076 31.0147 49.3307 31.1842 49.9202 31.1842Z" fill="#2058AA"/>
<path d="M25.0078 45.7895V38.9937H27.0668L29.2867 43.018L31.551 38.9937H33.3952L33.4204 45.7895H31.6394L31.6336 41.709L31.6394 41.6992L29.6057 45.1326H28.772L26.7889 41.7101L26.7889 45.7895H25.0078Z" fill="#2058AA"/>
<path d="M35.0563 41.8421V41.1789L36.7615 39.5684C36.8963 39.4463 36.9952 39.3368 37.0584 39.24C37.1215 39.1432 37.1636 39.0547 37.1847 38.9747C37.21 38.8947 37.2226 38.8211 37.2226 38.7537C37.2226 38.5768 37.1615 38.4421 37.0394 38.3495C36.9215 38.2526 36.7468 38.2042 36.5152 38.2042C36.33 38.2042 36.1573 38.24 35.9973 38.3116C35.8415 38.3832 35.7089 38.4947 35.5994 38.6463L34.8542 38.1663C35.0226 37.9137 35.2584 37.7137 35.5615 37.5663C35.8647 37.4189 36.2142 37.3453 36.61 37.3453C36.9384 37.3453 37.2247 37.4 37.4689 37.5095C37.7173 37.6147 37.9089 37.7642 38.0436 37.9579C38.1826 38.1516 38.2521 38.3832 38.2521 38.6526C38.2521 38.7958 38.2331 38.9389 38.1952 39.0821C38.1615 39.2211 38.09 39.3684 37.9805 39.5242C37.8752 39.68 37.7194 39.8547 37.5131 40.0484L36.5 41L38.3973 41.0084V41.8421H35.0563Z" fill="#2058AA"/>
</svg>
