<svg width="62" height="62" viewBox="0 0 62 62" fill="none" xmlns="http://www.w3.org/2000/svg">
<path d="M61 30.2036H1V61H61V30.2036Z" stroke="#F18A02" stroke-width="2"/>
<path d="M33.3896 30.2036V61" stroke="#F18A02" stroke-width="2"/>
<path d="M33.3896 36.5752H61.0003" stroke="#F18A02" stroke-width="2"/>
<path d="M7.90234 30.7345V54.6283H27.5484V30.7345" stroke="#F18A02" stroke-width="2"/>
<path d="M1 36.5752H7.37168" stroke="#F18A02" stroke-width="2"/>
<path d="M28.0801 36.5752H34.4518" stroke="#F18A02" stroke-width="2"/>
<path d="M7.90234 50.3805H27.5484" stroke="#F18A02" stroke-width="2"/>
<path d="M47.1949 52.5044H40.8232V56.7522H47.1949V52.5044Z" stroke="#F18A02" stroke-width="2"/>
<path d="M57.2828 52.5044H50.9111V56.7522H57.2828V52.5044Z" stroke="#F18A02" stroke-width="2"/>
<path d="M11.0889 47.1947V41.885H23.8322V47.1947H11.0889Z" stroke="#F18A02" stroke-width="2"/>
<path d="M15.3359 42.4159V47.1947" stroke="#F18A02" stroke-width="2"/>
<path d="M20.1152 41.885V46.6638" stroke="#F18A02" stroke-width="2"/>
<path d="M60.4688 1H28.6104V22.7699H60.4688V1Z" stroke="#F18A02" stroke-width="2"/>
<path d="M42.9473 4.7168H35.5137V12.6814H42.9473V4.7168Z" stroke="#F18A02" stroke-width="2"/>
<path d="M46.6641 5.2478H55.1596" stroke="#F18A02" stroke-width="2"/>
<path d="M46.6641 8.9646H55.1596" stroke="#F18A02" stroke-width="2"/>
<path d="M46.6641 13.2124H55.1596" stroke="#F18A02" stroke-width="2"/>
<path d="M28.6104 16.9292H60.4688" stroke="#F18A02" stroke-width="2"/>
<path d="M39.7607 22.7699V26.4867H50.3802V22.7699" stroke="#F18A02" stroke-width="2"/>
<path d="M36.0439 30.7345V27.0177H54.097V30.7345" stroke="#F18A02" stroke-width="2"/>
</svg>
