<svg width="84" height="71" viewBox="0 0 84 71" fill="none" xmlns="http://www.w3.org/2000/svg">
<path d="M4.16699 61.6667C4.16699 51.7256 13.1959 45.1667 24.3337 45.1667C35.4714 45.1667 44.5003 51.7256 44.5003 61.6667M73.8337 52.5C73.8337 42.5589 64.8047 36 53.667 36C49.6056 36 45.8282 36.8274 42.667 38.368M33.5003 25C33.5003 30.0626 29.3963 34.1667 24.3337 34.1667C19.271 34.1667 15.167 30.0626 15.167 25C15.167 19.9374 19.271 15.8334 24.3337 15.8334C29.3963 15.8334 33.5003 19.9374 33.5003 25ZM62.8337 15.8334C62.8337 20.896 58.7296 25 53.667 25C48.6044 25 44.5003 20.896 44.5003 15.8334C44.5003 10.7707 48.6044 6.66669 53.667 6.66669C58.7296 6.66669 62.8337 10.7707 62.8337 15.8334Z" stroke="#F18A02" stroke-width="2" stroke-linecap="round" stroke-linejoin="round"/>
</svg>
